<svg viewBox="0 0 44 43" fill="none" xmlns="http://www.w3.org/2000/svg">
<path d="M2 41.1111H42" stroke="white" stroke-width="2.09274" stroke-linecap="round" stroke-linejoin="round"/>
<path d="M33.1211 17.1111C36.8011 17.1111 39.7811 19.7911 39.7811 23.1111V41.1111" stroke="white" stroke-width="2.09274" stroke-linecap="round" stroke-linejoin="round"/>
<path d="M4.21899 41.1111V23.1111C4.21899 19.7911 7.19899 17.1111 10.879 17.1111H24.599" stroke="white" stroke-width="2.09274" stroke-linecap="round" stroke-linejoin="round"/>
<path d="M9.12134 17.1111V11.4511C9.12134 9.05113 11.2813 7.11113 13.9613 7.11113H30.0612C32.7212 7.11113 34.8812 9.05113 34.8812 11.4511V17.1111" stroke="white" stroke-width="2.09274" stroke-linecap="round" stroke-linejoin="round"/>
<path d="M38.9403 25.1111H38.0403C36.5603 25.1111 35.3403 26.3111 35.3403 27.8111V28.4311C35.3403 29.9111 34.1403 31.1311 32.6403 31.1311C31.1603 31.1311 29.9403 29.9311 29.9403 28.4311V27.8111C29.9403 26.3311 28.7403 25.1111 27.2403 25.1111C25.7603 25.1111 24.5403 26.3111 24.5403 27.8111V28.4311C24.5403 29.9111 23.3403 31.1311 21.8403 31.1311C20.3603 31.1311 19.1403 29.9311 19.1403 28.4311V27.8111C19.2003 26.3111 18.0003 25.1111 16.5202 25.1111C15.0402 25.1111 13.8202 26.3111 13.8202 27.8111" stroke="white" stroke-width="2.09274" stroke-linecap="round" stroke-linejoin="round"/>
<path d="M5.05884 25.0711L5.79884 25.0911C7.27884 25.1111 8.45884 26.3111 8.45884 27.7911V28.4511C8.45884 29.9311 9.65884 31.1511 11.1588 31.1511" stroke="white" stroke-width="2.09274" stroke-linecap="round" stroke-linejoin="round"/>
<path d="M14 7.11117V3.11117" stroke="white" stroke-width="2.09274" stroke-linecap="round" stroke-linejoin="round"/>
<path d="M30 7.11117V3.11117" stroke="white" stroke-width="2.09274" stroke-linecap="round" stroke-linejoin="round"/>
<path d="M22 7.11112V1.11112" stroke="white" stroke-width="2.09274" stroke-linecap="round" stroke-linejoin="round"/>
</svg>
