<svg width="33" height="34" viewBox="0 0 33 34" fill="none" xmlns="http://www.w3.org/2000/svg">
<path d="M13.6829 33.6111C6.13317 33.6111 0 27.478 0 19.9282C0 12.3784 6.13317 6.24527 13.6829 6.24527C21.2327 6.24527 27.3659 12.3784 27.3659 19.9282C27.3659 27.478 21.2327 33.6111 13.6829 33.6111ZM13.6829 8.6599C7.46927 8.6599 2.41463 13.7145 2.41463 19.9282C2.41463 26.1419 7.46927 31.1965 13.6829 31.1965C19.8966 31.1965 24.9512 26.1419 24.9512 19.9282C24.9512 13.7145 19.8966 8.6599 13.6829 8.6599Z" fill="white"/>
<path d="M22.9396 11.8793C22.6338 11.8793 22.3279 11.7666 22.0865 11.5251C21.6196 11.0583 21.6196 10.2856 22.0865 9.81881L30.9401 0.965147C31.4069 0.498317 32.1796 0.498317 32.6464 0.965147C33.1133 1.43198 33.1133 2.20466 32.6464 2.67149L23.7928 11.5251C23.5513 11.7666 23.2455 11.8793 22.9396 11.8793Z" fill="white"/>
<path d="M31.7927 13.4892C31.1327 13.4892 30.5854 12.9418 30.5854 12.2818V3.02575H21.3293C20.6693 3.02575 20.1219 2.47843 20.1219 1.81843C20.1219 1.15843 20.6693 0.611115 21.3293 0.611115H31.7927C32.4527 0.611115 33 1.15843 33 1.81843V12.2818C33 12.9418 32.4527 13.4892 31.7927 13.4892Z" fill="white"/>
</svg>
