<svg width="40" height="34" viewBox="0 0 40 34" fill="none" xmlns="http://www.w3.org/2000/svg">
<path d="M14.5368 20.781C13.8194 19.7325 13.4147 18.4632 13.4147 17.1019C13.4147 13.4596 16.3579 10.5164 20.0002 10.5164C23.6426 10.5164 26.5858 13.4596 26.5858 17.1019C26.5858 20.7443 23.6426 23.6875 20.0002 23.6875" stroke="white" stroke-width="2.06268" stroke-linecap="round" stroke-linejoin="round"/>
<path d="M30.2279 5.29196C27.119 3.0845 23.6239 1.88879 20 1.88879C13.5064 1.88879 7.45428 5.71506 3.2417 12.3375C1.5861 14.9313 1.5861 19.291 3.2417 21.8848C7.45428 28.5072 13.5064 32.3334 20 32.3334C26.4936 32.3334 32.5457 28.5072 36.7583 21.8848C38.4139 19.291 38.4139 14.9313 36.7583 12.3375" stroke="white" stroke-width="2.06268" stroke-linecap="round" stroke-linejoin="round"/>
</svg>
